<svg xmlns="http://www.w3.org/2000/svg" version="1.1" xmlns:xlink="http://www.w3.org/1999/xlink" xmlns:svgjs="http://svgjs.dev/svgjs" width="2000" height="1500" viewBox="0 0 2000 1500"><rect width="2000" height="1500" fill="#ffffff"></rect><g transform="matrix(0.75,0,0,0.75,249.090909090909,278.98548387096776)"><svg viewBox="0 0 396 248" data-background-color="#ffffff" preserveAspectRatio="xMidYMid meet" height="1252" width="2000" xmlns="http://www.w3.org/2000/svg" xmlns:xlink="http://www.w3.org/1999/xlink"><g id="tight-bounds" transform="matrix(1,0,0,1,0.2400000000000091,0.4000000000000057)"><svg viewBox="0 0 395.52 247.2" height="247.2" width="395.52"><g><svg></svg></g><g><svg viewBox="0 0 395.52 247.2" height="247.2" width="395.52"><g transform="matrix(1,0,0,1,133.85065444126073,47.215199999999996)"><svg viewBox="0 0 127.81869111747852 152.7696" height="152.7696" width="127.81869111747852"><g><svg viewBox="0 0 127.81869111747852 152.7696" height="152.7696" width="127.81869111747852"><g><svg viewBox="0 0 127.81869111747852 152.7696" height="152.7696" width="127.81869111747852"><g><svg viewBox="0 0 127.81869111747852 152.7696" height="152.7696" width="127.81869111747852"><g id="textblocktransform"><svg viewBox="0 0 127.81869111747852 152.7696" height="152.7696" width="127.81869111747852" id="textblock"><g><svg viewBox="0 0 127.81869111747852 152.7696" height="152.7696" width="127.81869111747852"><g transform="matrix(1,0,0,1,0,0)"><svg width="127.81869111747852" viewBox="1.65 -34.9 29.200000000000003 34.9" height="152.7696" data-palette-color="#131313"><path d="M26.2-8.8L6.85-8.8 6.85-13.3 26.2-13.3 26.2-8.8ZM1.65 0L12.45-34.9 20.05-34.9 30.85 0 25.4 0 18.35-23.1 16.25-30.75 14.15-23.05 7 0 1.65 0Z" opacity="1" transform="matrix(1,0,0,1,0,0)" fill="#131313" class="wordmark-text-0" data-fill-palette-color="primary" id="text-0"></path></svg></g></svg></g></svg></g></svg></g></svg></g></svg></g></svg></g><path d="M316.152 41.215L316.152 0 68.952 0 68.952 247.2 316.152 247.2 316.152 205.985 302.375 205.985 302.375 233.423 82.729 233.423 82.729 13.777 302.375 13.777 302.375 41.215Z" fill="#131313" stroke="transparent" data-fill-palette-color="tertiary"></path></svg></g><defs></defs></svg><rect width="395.52" height="247.2" fill="none" stroke="none" visibility="hidden"></rect></g></svg></g></svg>